<svg xmlns="http://www.w3.org/2000/svg" xmlns:xlink="http://www.w3.org/1999/xlink" width="500" zoomAndPan="magnify" viewBox="0 0 375 374.999991" height="500" preserveAspectRatio="xMidYMid meet" version="1.0"><path fill="#ffffff" d="M 187.675781 95.109375 C 222.183594 95.109375 252.640625 111.808594 271.480469 137.472656 C 272.710938 139.230469 274.472656 139.933594 276.585938 139.757812 C 307.21875 135.363281 366.195312 129.386719 371.65625 149.425781 C 374.824219 161.378906 355.808594 177.195312 322.535156 193.015625 C 313.910156 197.058594 304.402344 201.101562 294.191406 205.320312 C 292.253906 206.023438 291.019531 207.605469 290.84375 209.714844 C 285.210938 261.570312 241.195312 302 187.675781 302 C 153.34375 302 122.886719 285.300781 104.050781 259.636719 C 102.816406 258.054688 101.054688 257.175781 98.945312 257.527344 C 68.308594 261.921875 9.332031 267.898438 3.875 247.683594 C 0.703125 235.730469 19.71875 219.910156 52.992188 204.089844 C 61.445312 200.222656 70.949219 196.003906 81.339844 191.960938 C 83.273438 191.082031 84.507812 189.5 84.683594 187.566406 C 90.140625 135.539062 134.332031 95.109375 187.675781 95.109375 Z M 222.359375 174.207031 C 225.351562 168.757812 232.21875 167 237.5 170.164062 C 232.21875 167 230.28125 160.324219 233.449219 155.050781 C 230.28125 160.324219 223.589844 162.082031 218.308594 159.09375 C 223.589844 162.082031 225.351562 168.757812 222.359375 174.207031 Z M 235.210938 149.601562 C 238.203125 144.328125 245.070312 142.570312 250.351562 145.558594 C 245.070312 142.570312 243.132812 135.714844 246.304688 130.441406 C 243.132812 135.714844 236.445312 137.648438 231.160156 134.484375 C 236.445312 137.648438 238.203125 144.328125 235.210938 149.601562 Z M 192.957031 152.941406 C 199.121094 142.21875 212.675781 138.703125 223.414062 144.855469 C 212.675781 138.703125 209.15625 124.992188 215.316406 114.445312 C 209.15625 124.992188 195.421875 128.683594 184.859375 122.53125 C 195.421875 128.683594 199.121094 142.21875 192.957031 152.941406 Z M 282.746094 156.984375 C 285.386719 163.3125 287.675781 169.988281 289.085938 176.667969 C 289.4375 178.25 290.316406 179.480469 291.726562 180.359375 C 293.132812 181.0625 294.542969 181.238281 296.125 180.710938 C 305.632812 177.195312 315.140625 173.503906 324.472656 169.285156 C 324.472656 169.109375 324.648438 169.109375 324.648438 169.109375 L 342.078125 162.257812 C 327.816406 171.21875 306.691406 180.886719 290.84375 187.390625 C 260.210938 199.695312 222.535156 211.824219 193.308594 219.382812 C 171.65625 225.007812 151.585938 229.753906 129.753906 233.972656 C 129.753906 233.972656 129.753906 234.148438 129.753906 234.148438 L 104.226562 238.542969 C 104.226562 238.542969 104.226562 238.542969 104.050781 238.542969 C 82.042969 242.058594 54.226562 245.222656 34.15625 244.167969 C 34.15625 244.167969 58.625 242.234375 85.035156 237.488281 C 86.621094 237.3125 87.851562 236.433594 88.730469 235.027344 C 89.4375 233.621094 89.613281 232.214844 89.261719 230.632812 C 86.972656 223.953125 85.5625 217.097656 84.683594 210.066406 C 84.507812 208.308594 83.625 206.902344 82.042969 206.023438 C 80.632812 205.144531 78.875 204.96875 77.289062 205.671875 C 54.050781 215.515625 12.148438 235.378906 14.789062 244.871094 C 17.78125 255.945312 78.34375 249.265625 100 245.925781 C 150.878906 238.367188 211.269531 222.898438 259.859375 206.023438 C 279.226562 199.34375 299.472656 191.433594 317.78125 182.820312 C 345.773438 169.460938 362.324219 158.390625 360.738281 152.238281 C 358.097656 142.746094 311.972656 146.4375 286.972656 149.601562 C 285.210938 149.777344 283.804688 150.832031 282.921875 152.238281 C 282.042969 153.820312 282.042969 155.402344 282.746094 156.984375 Z M 282.746094 156.984375 " fill-opacity="1" fill-rule="evenodd"/></svg>